<?xml version="1.0" encoding="UTF-8" ?>
<!DOCTYPE svg PUBLIC "-//W3C//DTD SVG 1.1//EN" "http://www.w3.org/Graphics/SVG/1.1/DTD/svg11.dtd">
<svg width="454pt" height="510pt" viewBox="0 0 454 510" version="1.1" xmlns="http://www.w3.org/2000/svg">
<g id="#ffffffff">
<path fill="#ffffff" opacity="1.00" d=" M 240.20 0.00 L 262.37 0.00 C 302.12 3.64 341.50 16.51 373.98 40.06 C 416.78 70.45 444.12 119.19 453.33 170.37 C 440.32 175.70 427.28 180.95 414.25 186.24 C 415.04 217.24 405.13 247.68 390.57 274.73 C 389.79 276.10 390.72 277.61 391.06 278.97 C 400.37 304.68 409.42 330.49 418.72 356.20 C 419.22 357.81 420.08 359.56 419.31 361.24 C 416.04 370.72 411.19 379.91 403.95 386.96 C 401.12 390.03 395.92 390.98 392.41 388.55 C 380.92 381.82 369.35 375.21 357.83 368.52 C 357.00 369.77 356.17 371.02 355.35 372.29 C 364.92 378.88 371.87 389.37 373.21 401.02 C 375.33 416.34 367.89 432.53 354.68 440.66 C 341.00 449.58 321.97 448.85 308.90 439.11 C 298.60 431.79 292.60 419.38 292.28 406.85 C 260.68 408.54 228.96 419.11 204.49 439.53 C 184.35 456.45 172.15 481.12 166.82 506.56 C 123.59 507.58 80.36 508.69 37.13 509.72 C 38.16 506.22 38.63 502.51 40.24 499.23 C 45.55 494.25 52.03 490.74 58.09 486.77 C 55.99 480.15 52.47 473.90 51.12 467.11 C 60.52 436.50 71.26 406.26 80.59 375.61 C 83.57 364.80 87.43 352.32 81.05 341.95 C 66.71 317.35 38.26 302.24 9.96 302.56 C 4.00 303.80 2.94 296.38 0.00 292.84 L 0.00 292.65 C 8.47 287.77 18.12 285.32 26.61 280.64 C 59.56 225.80 94.13 171.05 139.00 125.02 C 159.58 104.06 183.92 86.47 211.15 75.26 C 230.62 67.34 251.95 62.93 272.98 65.47 C 305.87 69.88 336.74 86.93 358.38 112.05 C 361.07 110.37 363.76 108.70 366.45 107.02 C 345.67 80.71 314.71 63.82 282.24 56.73 C 257.98 50.87 232.50 53.40 208.56 59.53 C 175.92 68.10 145.38 83.39 117.20 101.76 C 106.75 82.89 96.27 64.02 85.84 45.14 C 90.06 42.88 94.29 40.62 98.53 38.39 C 101.04 40.63 103.56 42.86 106.08 45.08 C 147.66 22.48 192.46 3.37 240.20 0.00 M 151.79 24.22 C 157.18 36.69 163.12 48.83 169.17 60.98 C 167.90 61.59 166.63 62.19 165.36 62.79 C 159.49 50.51 153.67 38.22 147.92 25.88 C 133.62 32.20 119.63 39.22 105.89 46.68 C 103.36 44.44 100.84 42.19 98.29 39.97 C 94.73 41.88 91.16 43.76 87.63 45.71 C 97.67 63.75 107.63 81.85 117.68 99.89 C 159.95 72.53 208.75 50.76 260.05 52.23 C 301.37 55.30 342.69 74.22 368.35 107.41 C 364.93 109.51 361.53 111.63 358.13 113.75 C 336.40 88.08 305.00 70.68 271.56 66.62 C 249.83 64.24 227.89 69.38 208.01 77.99 C 179.99 90.23 155.33 109.26 134.46 131.45 C 93.99 174.79 61.54 224.85 31.34 275.67 C 41.25 271.43 51.05 266.92 60.77 262.27 C 60.17 257.91 59.93 253.53 59.74 249.14 C 65.88 246.65 71.91 243.87 78.08 241.44 C 78.01 242.87 77.93 244.30 77.85 245.74 C 73.56 247.61 69.25 249.44 64.94 251.28 C 65.37 255.56 65.69 259.85 65.91 264.16 C 44.68 274.16 23.19 283.62 1.79 293.26 C 3.42 295.92 5.04 298.59 6.70 301.24 C 36.66 299.89 67.34 315.47 82.38 341.66 C 88.11 350.92 85.63 362.16 82.96 371.97 C 73.57 403.97 62.23 435.38 52.42 467.24 C 53.67 472.80 56.43 477.99 58.25 483.41 C 75.09 471.76 91.94 460.10 108.63 448.25 C 108.44 444.10 108.21 439.95 107.95 435.81 C 115.10 430.99 122.04 425.86 129.22 421.10 C 133.35 421.96 137.04 424.29 141.00 425.75 C 152.62 417.93 164.09 409.90 175.45 401.70 C 169.11 392.69 167.37 380.86 170.86 370.41 C 157.51 368.07 144.18 365.63 130.84 363.19 C 131.33 360.28 131.86 357.38 132.45 354.50 C 146.66 357.10 160.88 359.61 175.09 362.19 C 185.47 347.07 208.29 342.85 222.99 354.11 C 228.61 358.00 231.78 364.36 234.83 370.28 C 233.06 371.01 231.28 371.72 229.49 372.40 C 225.21 360.51 212.61 352.29 199.96 353.95 C 185.63 355.06 174.30 368.82 175.18 383.02 C 175.41 387.28 175.68 392.91 180.52 394.48 C 180.86 393.84 181.53 392.57 181.87 391.94 C 184.18 392.81 186.61 396.21 189.09 394.12 C 196.98 388.72 204.77 383.17 212.67 377.78 C 216.72 375.61 217.15 369.37 222.71 369.76 C 222.40 371.02 221.95 372.21 221.35 373.34 C 212.38 380.49 202.19 385.95 193.35 393.26 C 193.37 394.62 193.39 395.98 193.41 397.35 C 190.07 398.17 186.61 397.94 183.25 397.45 C 182.75 398.70 182.24 399.94 181.70 401.18 C 189.88 411.63 204.50 415.05 216.86 410.89 C 204.58 419.14 187.51 415.37 177.92 404.73 C 165.50 412.70 153.62 421.47 141.54 429.93 C 137.62 428.34 133.72 426.67 129.85 424.97 C 123.96 429.05 118.00 433.05 112.32 437.40 C 111.13 441.38 112.52 445.96 112.41 450.16 C 89.42 466.21 66.43 482.28 43.37 498.25 C 39.82 500.27 40.09 504.92 38.82 508.34 C 81.15 507.36 123.48 506.30 165.80 505.23 C 170.74 482.43 181.14 460.39 197.86 443.86 C 219.58 422.75 249.02 410.80 278.76 406.78 C 277.77 403.80 276.79 400.83 275.81 397.85 C 264.81 401.45 252.36 397.35 245.28 388.30 C 243.28 388.79 241.29 389.34 239.30 389.88 C 238.61 389.17 237.92 388.46 237.23 387.77 C 237.88 382.93 237.79 378.03 236.80 373.25 C 237.61 373.09 239.23 372.77 240.04 372.60 C 240.02 361.26 247.37 350.63 258.00 346.68 C 258.57 347.73 259.15 348.79 259.72 349.85 C 246.22 354.38 239.36 371.71 247.06 383.95 C 254.13 397.15 274.31 399.38 284.12 388.08 C 294.31 377.85 291.36 359.56 279.35 352.05 C 280.15 351.27 280.97 350.49 281.78 349.73 C 284.89 352.01 289.86 354.55 293.11 351.18 C 298.26 346.57 303.33 341.78 307.60 336.33 C 302.73 332.37 297.92 325.93 300.32 319.36 C 301.55 315.16 302.74 309.69 307.59 308.34 C 302.56 314.35 300.41 323.63 305.86 330.11 C 311.04 337.20 321.10 337.15 328.13 333.00 C 324.79 339.04 317.26 340.32 311.17 338.18 C 310.39 339.06 309.61 339.95 308.85 340.84 C 313.06 342.32 317.52 342.61 321.95 342.69 C 317.29 344.92 311.95 344.11 307.35 342.14 C 302.43 347.30 296.90 351.89 292.35 357.40 C 290.94 360.83 293.99 364.29 293.78 367.88 C 295.68 379.18 289.60 390.81 279.61 396.22 C 280.68 399.57 281.76 402.93 282.93 406.25 C 286.48 405.95 290.02 405.68 293.58 405.44 C 292.94 425.68 309.72 444.52 330.06 445.53 C 348.54 447.30 366.89 434.00 371.04 415.93 C 375.41 399.69 367.83 381.54 353.58 372.77 C 354.82 370.77 356.07 368.77 357.32 366.77 C 369.41 373.62 381.39 380.66 393.43 387.59 C 396.42 389.47 400.72 388.59 403.03 386.01 C 410.32 378.87 415.26 369.56 418.30 359.89 C 409.03 331.72 398.29 303.96 388.71 275.87 C 403.36 248.08 414.00 217.10 413.02 185.30 C 425.96 180.10 438.88 174.84 451.81 169.59 C 450.60 163.38 449.20 157.21 447.51 151.12 C 435.36 155.85 423.21 160.56 411.11 165.39 C 410.60 164.04 410.10 162.69 409.61 161.34 C 421.84 156.49 434.14 151.86 446.33 146.92 C 442.54 134.10 437.56 121.65 431.53 109.72 C 420.76 114.57 409.99 119.45 399.27 124.40 C 398.76 123.06 398.26 121.73 397.77 120.39 C 408.31 115.49 418.93 110.76 429.48 105.87 C 418.47 85.43 403.86 66.91 386.34 51.66 C 351.88 21.68 306.94 4.77 261.59 1.57 C 223.75 -0.54 186.35 9.50 151.79 24.22 Z" />
<path fill="#ffffff" opacity="1.00" d=" M 180.34 26.83 C 183.94 21.53 191.54 21.59 197.05 19.14 C 197.56 20.41 198.06 21.68 198.56 22.96 C 194.33 25.19 189.74 26.22 185.26 27.68 C 184.73 27.48 184.19 27.29 183.66 27.09 C 183.44 27.74 183.00 29.04 182.78 29.68 C 179.01 30.47 175.64 32.37 172.02 33.54 C 168.07 32.09 170.55 26.87 174.22 28.39 C 175.77 27.48 177.42 26.75 179.06 26.00 C 179.38 26.21 180.02 26.63 180.34 26.83 Z" />
<path fill="#ffffff" opacity="1.00" d=" M 200.75 28.83 C 203.87 27.94 206.97 25.15 210.29 26.77 C 204.59 29.65 198.48 31.94 192.31 33.55 C 193.97 30.41 197.89 30.31 200.75 28.83 Z" />
<path fill="#ffffff" opacity="1.00" d=" M 185.20 31.28 C 188.91 30.03 193.10 26.14 197.04 28.39 C 192.49 30.20 188.05 32.40 183.24 33.44 C 181.25 34.84 178.94 35.72 177.04 37.26 C 182.21 36.43 186.79 33.57 192.00 32.89 C 186.92 37.57 179.79 39.10 173.41 41.31 C 173.59 39.12 175.67 38.37 177.42 37.74 C 176.89 37.34 176.37 36.93 175.85 36.53 C 174.98 36.88 173.24 37.60 172.37 37.96 C 174.25 32.97 181.27 34.04 185.20 31.28 Z" />
<path fill="#ffffff" opacity="1.00" d=" M 377.50 103.41 C 378.34 103.50 380.03 103.67 380.87 103.75 C 386.20 110.62 390.96 118.02 394.83 125.82 C 394.36 126.29 393.44 127.22 392.97 127.68 C 387.88 119.57 382.45 111.64 377.50 103.41 Z" />
<path fill="#ffffff" opacity="1.00" d=" M 264.93 112.66 C 271.34 111.99 278.33 111.45 284.16 114.74 C 290.49 117.94 299.18 118.86 302.60 125.89 C 299.26 125.08 296.33 123.28 293.32 121.74 C 289.04 119.53 284.25 123.55 280.04 121.02 C 272.77 115.57 263.39 119.97 255.44 121.44 C 256.97 122.90 258.57 125.18 261.01 124.56 C 267.23 123.73 273.53 123.90 279.72 124.89 C 280.16 124.36 281.04 123.30 281.47 122.77 C 288.70 128.96 298.98 130.42 305.09 138.06 C 270.88 153.92 236.58 169.59 202.33 185.34 C 198.91 186.53 197.19 191.96 193.14 188.93 C 193.28 186.87 193.45 184.82 193.62 182.77 C 186.39 173.62 177.56 165.67 171.16 155.93 C 180.69 147.94 192.10 142.56 202.71 136.18 C 204.08 136.85 205.44 137.53 206.81 138.20 C 209.33 135.56 210.64 131.60 214.25 130.18 C 230.37 122.44 247.08 115.15 264.93 112.66 M 209.50 142.29 C 212.27 147.47 215.73 152.48 220.78 155.68 C 219.47 151.07 218.14 145.59 221.34 141.41 C 228.23 133.07 239.48 131.04 248.37 125.71 C 234.33 127.84 221.28 134.57 209.50 142.29 M 228.10 169.15 C 229.62 168.20 231.13 167.23 232.61 166.22 C 230.65 163.18 228.60 160.20 226.19 157.51 C 220.18 160.72 225.41 165.51 228.10 169.15 Z" />
<path fill="#ffffff" opacity="1.00" d=" M 341.46 133.70 C 343.30 130.60 346.93 129.65 350.00 128.23 C 353.77 130.98 358.74 132.07 361.73 135.80 C 355.05 134.31 348.31 133.62 341.46 133.70 Z" />
<path fill="#ffffff" opacity="1.00" d=" M 380.27 128.90 C 381.98 128.37 382.75 131.30 381.00 131.69 C 379.28 132.19 378.57 129.35 380.27 128.90 Z" />
<path fill="#ffffff" opacity="1.00" d=" M 325.39 139.41 C 330.18 137.64 334.50 134.69 339.50 133.51 C 325.65 144.14 309.08 150.77 293.53 158.59 C 295.00 160.40 296.32 162.31 297.48 164.33 C 298.91 164.74 300.35 165.17 301.77 165.63 C 302.53 164.78 303.30 163.94 304.09 163.11 C 306.56 164.59 308.99 166.50 307.32 169.59 C 312.20 176.10 305.87 182.75 303.31 188.69 C 305.33 188.12 307.34 187.47 309.37 186.89 C 303.50 194.27 291.37 195.30 284.98 188.06 C 279.50 182.59 280.14 174.19 282.50 167.43 C 280.86 166.93 279.23 166.41 277.63 165.80 C 255.25 176.02 232.68 185.83 210.57 196.64 C 207.20 202.70 208.10 210.70 204.16 216.63 C 204.53 208.99 206.37 201.51 207.10 193.90 C 233.48 181.52 260.06 169.54 286.59 157.51 C 299.23 150.82 312.99 146.56 325.39 139.41 M 291.82 169.85 C 286.66 174.19 291.98 181.58 297.58 182.11 C 293.12 182.78 289.60 179.97 287.70 176.20 C 286.53 185.67 300.43 190.31 304.80 181.78 C 309.82 173.98 299.16 164.20 291.82 169.85 Z" />
<path fill="#ffffff" opacity="1.00" d=" M 382.39 135.03 C 385.67 136.11 386.51 139.54 387.63 142.39 C 389.86 148.93 391.72 155.64 392.54 162.52 C 388.49 153.77 385.92 144.12 382.39 135.03 Z" />
<path fill="#ffffff" opacity="1.00" d=" M 390.31 163.62 C 396.12 166.65 393.14 174.35 393.70 179.60 C 391.33 180.47 388.93 181.27 386.53 182.05 C 388.43 176.04 389.47 169.85 390.31 163.62 Z" />
<path fill="#ffffff" opacity="1.00" d=" M 141.49 188.53 C 149.16 180.53 158.44 174.20 166.88 167.02 C 174.92 175.39 182.78 183.95 190.79 192.37 C 190.41 193.52 190.03 194.67 189.67 195.83 C 191.67 196.96 193.81 197.81 196.12 198.03 C 196.02 199.10 195.81 200.15 195.49 201.17 C 195.02 209.99 193.00 218.66 191.77 227.40 C 188.08 223.97 181.46 221.90 181.61 215.98 C 181.85 212.06 183.59 208.41 184.66 204.67 C 187.34 203.27 188.72 200.67 189.08 197.74 C 185.76 199.77 182.30 201.91 179.83 204.95 C 177.88 209.50 175.85 214.00 173.34 218.25 C 172.17 224.09 180.27 224.91 180.55 230.24 C 181.11 234.69 176.14 236.96 173.70 239.95 C 169.93 236.90 166.86 232.85 162.62 230.49 C 156.38 230.79 150.13 230.52 143.89 229.92 C 143.82 232.93 143.50 236.00 144.42 238.93 C 143.00 241.04 141.55 243.14 140.10 245.23 C 136.86 243.75 133.89 238.63 130.11 240.74 C 131.12 241.72 132.16 242.68 133.20 243.64 C 131.89 246.65 132.53 249.90 132.84 253.03 C 137.56 256.56 141.97 260.66 143.47 266.60 C 144.78 265.29 145.95 263.84 147.04 262.34 C 145.91 259.56 147.08 256.77 147.90 254.09 C 148.46 254.64 149.57 255.73 150.13 256.28 C 153.24 255.39 156.45 253.67 156.25 249.92 C 158.47 247.53 160.84 245.28 163.04 242.88 C 163.84 242.91 165.44 242.97 166.24 243.00 C 159.66 246.49 160.07 254.87 155.64 260.06 C 155.99 263.37 156.51 266.65 157.14 269.91 C 158.99 267.68 160.61 265.12 163.25 263.70 C 161.56 271.05 154.66 275.87 153.19 283.51 C 154.33 284.91 155.44 286.34 156.52 287.79 C 157.30 286.71 158.10 285.65 158.90 284.59 C 158.81 283.96 158.63 282.69 158.54 282.06 C 161.42 276.98 166.25 279.79 169.32 283.02 C 170.68 282.74 172.05 282.47 173.43 282.20 C 175.43 285.09 177.39 288.01 179.14 291.06 C 175.47 292.79 171.50 293.64 167.56 294.52 C 166.73 296.34 165.86 298.13 164.98 299.93 C 165.62 299.85 166.91 299.70 167.55 299.62 C 168.07 298.77 168.58 297.92 169.10 297.08 C 170.96 297.20 172.83 297.34 174.68 297.54 C 172.91 301.69 173.64 307.12 169.22 309.69 C 168.45 309.46 166.90 309.00 166.13 308.77 C 166.90 306.68 167.65 304.57 168.20 302.41 C 166.19 303.74 164.66 305.62 163.20 307.51 C 162.25 307.59 161.30 307.68 160.35 307.78 C 159.43 309.35 158.22 310.73 156.48 311.40 C 155.68 309.94 154.92 308.46 154.04 307.05 C 152.64 311.66 155.87 315.92 156.79 320.31 C 159.03 318.54 160.36 316.01 161.61 313.51 C 163.61 315.87 165.63 318.22 167.88 320.35 C 168.64 318.32 169.36 316.28 170.12 314.25 C 171.00 314.47 171.89 314.69 172.78 314.91 C 173.47 318.78 175.09 322.85 174.03 326.76 C 172.41 328.27 169.49 327.95 168.91 330.67 C 168.70 330.41 168.27 329.89 168.05 329.64 C 168.22 326.42 166.98 323.55 164.37 321.68 C 164.01 324.39 164.46 328.44 160.79 328.91 C 157.56 330.76 158.23 325.63 157.86 323.76 C 157.11 322.76 156.36 321.76 155.62 320.76 C 154.91 321.29 154.20 321.81 153.48 322.34 C 153.42 324.28 153.35 326.21 153.27 328.16 C 151.62 328.49 149.97 328.81 148.33 329.16 C 150.46 336.69 160.40 329.08 166.03 331.19 C 169.28 335.04 168.12 340.85 165.01 344.43 C 161.68 340.78 159.63 335.87 154.56 334.09 C 155.34 337.08 156.92 340.41 154.89 343.28 C 151.04 343.01 148.69 339.46 145.88 337.27 C 146.10 338.47 146.33 339.67 146.56 340.87 C 145.51 342.15 144.96 344.17 143.08 344.39 C 139.23 341.81 135.06 337.76 136.47 332.65 C 139.34 334.02 142.43 334.76 145.61 334.89 C 146.39 332.07 146.31 329.14 145.91 326.27 C 150.25 320.91 149.64 313.50 152.95 307.61 C 149.24 308.29 147.39 311.53 144.91 313.94 C 143.60 312.60 142.95 310.82 142.26 309.12 C 140.13 307.89 137.81 308.16 135.63 309.08 C 134.63 312.28 133.53 315.44 132.04 318.45 C 131.11 315.52 130.33 312.56 129.56 309.59 C 128.41 309.01 127.27 308.42 126.13 307.83 C 125.77 308.46 125.06 309.73 124.70 310.36 C 119.84 304.05 126.02 297.91 126.75 291.42 C 127.63 287.67 132.12 287.00 135.34 287.66 C 135.64 291.61 130.67 296.78 134.84 299.69 C 134.40 300.96 133.97 302.22 133.58 303.52 C 137.68 300.28 141.06 294.90 143.65 290.13 C 138.88 284.02 132.15 279.37 129.05 271.96 C 128.06 268.77 123.92 269.63 122.98 272.43 C 122.61 272.26 121.87 271.92 121.50 271.75 C 124.10 266.12 127.81 261.10 130.70 255.62 C 133.25 248.86 127.57 242.23 130.67 235.58 C 123.38 238.35 116.60 242.40 109.21 244.86 C 105.04 242.66 101.24 239.82 97.09 237.58 C 92.64 239.44 88.23 241.45 83.62 242.92 C 84.74 235.76 93.54 235.59 98.75 232.64 C 102.79 235.14 106.78 237.73 110.90 240.12 C 117.56 236.65 125.00 234.38 131.27 230.36 C 136.72 217.04 134.04 201.16 141.49 188.53 M 170.31 187.33 C 166.44 188.85 166.48 195.11 170.40 196.54 C 173.86 198.31 178.27 194.80 177.37 191.02 C 176.98 187.82 173.15 185.93 170.31 187.33 M 145.48 215.72 C 142.94 220.25 140.39 224.77 137.78 229.26 C 138.88 232.71 139.93 236.18 141.38 239.50 C 143.06 236.98 141.79 234.07 141.38 231.37 C 143.96 226.82 146.57 222.30 149.16 217.77 C 147.94 217.08 146.71 216.40 145.48 215.72 Z" />
<path fill="#ffffff" opacity="1.00" d=" M 378.44 188.53 C 381.54 187.19 384.81 184.86 388.27 186.56 C 381.71 192.98 372.23 194.92 364.42 199.46 C 362.26 200.25 356.62 203.72 357.62 199.10 C 364.03 194.60 371.44 191.94 378.44 188.53 Z" />
<path fill="#ffffff" opacity="1.00" d=" M 353.31 200.44 C 354.40 201.40 355.45 202.41 356.48 203.45 C 357.18 203.23 358.58 202.78 359.28 202.56 C 355.81 211.01 355.98 220.21 352.45 228.66 C 351.72 226.14 351.03 223.61 350.13 221.14 C 346.27 221.12 341.98 219.53 340.66 215.56 C 338.62 211.50 341.88 205.73 346.71 206.74 C 344.91 209.02 343.45 211.53 342.21 214.16 C 344.62 216.37 348.33 219.11 351.49 216.57 C 354.93 214.16 353.36 209.46 350.37 207.44 C 350.30 206.81 350.16 205.54 350.09 204.90 C 350.85 204.51 351.62 204.13 352.39 203.75 C 352.62 202.92 353.08 201.26 353.31 200.44 Z" />
<path fill="#ffffff" opacity="1.00" d=" M 202.94 220.18 C 203.47 220.27 204.54 220.45 205.08 220.53 C 204.49 222.18 203.86 223.81 203.17 225.42 C 202.80 223.70 202.87 221.93 202.94 220.18 Z" />
<path fill="#ffffff" opacity="1.00" d=" M 225.85 237.81 C 229.47 233.41 237.20 236.15 238.52 241.31 C 239.27 243.22 239.13 246.42 242.00 246.26 C 258.66 249.11 275.30 252.05 291.92 255.14 C 293.59 255.10 294.09 256.71 294.71 257.94 C 274.03 255.56 253.74 247.95 232.76 249.58 C 235.68 247.13 237.30 242.01 233.29 239.72 C 229.69 237.32 226.27 240.71 224.67 243.75 C 225.10 245.35 225.51 246.96 225.83 248.59 C 223.71 245.51 221.89 240.15 225.85 237.81 Z" />
<path fill="#ffffff" opacity="1.00" d=" M 177.52 243.59 C 179.44 241.58 181.39 239.62 183.35 237.65 C 185.57 243.28 191.67 245.15 196.26 248.29 C 201.09 243.70 207.46 242.37 213.58 245.33 C 214.81 249.07 216.00 252.83 217.25 256.57 C 220.39 257.56 226.64 258.41 222.44 262.42 C 221.90 264.58 221.08 266.67 220.10 268.67 C 216.46 268.45 213.02 269.56 210.19 271.83 C 211.40 267.03 207.49 261.39 202.22 263.22 C 197.45 264.58 197.53 270.11 198.97 273.92 C 194.84 276.01 191.09 278.67 188.72 282.74 C 184.97 287.82 179.95 281.05 177.67 277.82 C 179.15 276.94 180.67 276.11 182.20 275.32 C 181.62 274.22 181.02 273.12 180.43 272.03 C 181.05 271.71 182.29 271.07 182.91 270.75 C 183.47 261.64 186.97 249.22 177.52 243.59 Z" />
<path fill="#ffffff" opacity="1.00" d=" M 303.36 258.90 C 303.85 254.53 307.29 250.33 312.01 250.74 C 316.24 250.58 318.25 254.68 320.97 257.13 C 321.39 258.32 321.79 259.52 322.20 260.72 C 327.95 261.94 333.84 262.62 339.43 264.50 C 331.83 267.15 323.58 261.42 315.54 263.39 C 317.37 260.10 317.44 254.79 312.95 253.76 C 308.63 252.53 306.56 256.97 305.64 260.33 C 305.07 259.97 303.93 259.25 303.36 258.90 Z" />
<path fill="#ffffff" opacity="1.00" d=" M 232.83 259.11 C 240.28 260.39 247.71 261.83 255.17 263.11 C 252.92 271.76 258.87 281.63 268.03 282.41 C 276.56 283.73 284.07 276.69 285.17 268.50 C 287.84 269.12 291.06 268.97 292.85 271.43 C 290.71 271.94 287.74 271.50 287.31 274.32 C 283.51 284.74 269.81 289.52 260.39 283.62 C 253.55 280.08 251.33 272.08 250.81 264.96 C 245.30 263.62 239.69 262.77 234.10 261.82 C 230.68 269.26 227.24 276.69 223.45 283.94 C 221.26 283.05 222.54 280.65 223.14 279.09 C 226.21 272.35 229.37 265.65 232.83 259.11 Z" />
<path fill="#ffffff" opacity="1.00" d=" M 169.44 266.85 C 172.10 266.93 174.76 267.07 177.42 267.22 C 176.28 268.46 175.11 269.68 173.95 270.90 C 172.40 269.60 170.89 268.25 169.44 266.85 Z" />
<path fill="#ffffff" opacity="1.00" d=" M 323.53 269.94 C 324.49 265.96 328.58 267.28 331.36 268.40 C 328.88 269.46 326.22 270.00 323.53 269.94 Z" />
<path fill="#ffffff" opacity="1.00" d=" M 126.29 283.78 C 125.66 279.87 123.23 276.31 123.36 272.32 C 125.98 275.63 127.87 279.42 129.96 283.07 C 129.67 283.50 129.08 284.35 128.79 284.78 C 127.95 284.44 127.12 284.11 126.29 283.78 Z" />
<path fill="#ffffff" opacity="1.00" d=" M 203.40 276.46 C 208.03 275.30 212.71 274.30 217.41 273.43 C 216.07 276.00 214.69 278.55 213.24 281.07 C 209.55 280.32 205.78 280.05 202.01 280.14 C 202.47 278.91 202.93 277.68 203.40 276.46 Z" />
<path fill="#ffffff" opacity="1.00" d=" M 312.75 274.45 C 314.68 274.16 316.63 274.19 318.57 274.37 C 319.10 282.77 313.30 295.07 322.94 300.08 C 332.49 303.52 338.15 313.93 336.48 323.86 C 339.47 322.80 342.26 321.30 345.10 319.91 C 344.68 309.04 337.61 299.34 327.77 294.96 C 328.35 294.63 329.51 293.98 330.09 293.65 C 342.40 298.68 349.47 313.00 347.14 325.94 C 343.68 327.29 340.25 328.70 336.84 330.17 C 336.54 333.67 335.39 337.12 333.04 339.78 C 353.13 352.52 372.45 366.70 392.73 379.17 C 397.55 381.31 401.76 377.55 405.72 375.41 C 404.32 381.26 398.32 383.60 392.84 383.50 C 375.77 371.76 358.39 360.48 341.42 348.59 C 337.66 346.41 334.24 342.58 329.46 343.47 C 328.75 340.62 328.06 337.77 327.36 334.92 C 335.73 329.19 337.56 316.12 330.16 308.88 C 324.53 302.46 315.29 303.73 307.74 303.74 C 299.52 308.81 290.83 313.33 283.12 319.17 C 280.58 325.58 279.83 332.66 277.84 339.30 C 268.73 337.61 258.83 337.63 250.49 342.41 C 247.81 340.45 248.07 337.47 249.50 334.81 C 248.34 332.16 247.12 329.53 245.88 326.92 C 243.25 327.25 240.61 327.61 238.00 328.10 C 240.54 331.31 243.92 334.52 243.65 339.00 C 243.76 344.67 239.17 349.08 233.93 350.37 C 233.38 351.91 232.85 353.46 232.28 355.00 C 229.73 354.49 229.61 352.32 229.65 350.19 C 222.89 348.05 219.08 340.40 222.00 333.80 C 219.29 331.38 216.08 328.32 212.15 330.12 C 202.72 333.36 191.48 329.11 186.69 320.34 C 182.79 314.03 182.82 304.96 188.59 299.75 C 188.22 304.52 186.39 309.33 187.82 314.10 C 189.84 322.83 199.01 329.01 207.86 327.60 C 219.75 326.36 226.38 312.97 222.55 302.18 C 227.94 307.11 227.74 315.06 223.80 320.80 C 221.04 323.86 224.74 326.48 226.39 328.96 C 228.26 328.42 230.14 327.91 232.03 327.44 C 231.55 325.52 229.24 323.11 231.49 321.59 C 234.83 318.66 234.50 313.81 235.70 309.88 C 233.76 306.91 232.87 303.48 234.00 300.01 C 238.64 305.62 241.81 312.26 245.73 318.36 C 254.34 319.61 262.93 322.05 271.56 322.56 C 285.77 314.18 299.71 305.31 313.80 296.73 C 314.29 290.16 314.90 283.60 315.33 277.03 C 314.69 276.38 313.40 275.09 312.75 274.45 M 230.26 330.30 C 223.77 331.54 221.24 340.51 225.94 345.07 C 230.35 350.13 239.77 347.61 240.96 340.97 C 242.67 334.83 236.40 328.50 230.26 330.30 Z" />
<path fill="#ffffff" opacity="1.00" d=" M 230.09 296.56 C 228.34 294.33 222.69 289.40 226.86 287.63 C 229.35 289.94 229.75 293.38 230.09 296.56 Z" />
<path fill="#ffffff" opacity="1.00" d=" M 244.75 297.95 C 243.81 294.11 249.36 289.21 252.98 290.34 C 250.47 293.11 247.73 295.68 244.75 297.95 Z" />
<path fill="#ffffff" opacity="1.00" d=" M 277.71 294.67 C 281.51 294.88 285.29 301.87 282.65 304.85 C 280.78 301.57 279.09 298.19 277.71 294.67 Z" />
<path fill="#ffffff" opacity="1.00" d=" M 193.24 299.07 C 194.60 297.76 199.69 301.72 197.83 303.89 C 196.05 302.97 192.03 301.07 193.24 299.07 Z" />
<path fill="#ffffff" opacity="1.00" d=" M 126.55 331.25 C 120.26 326.98 123.88 317.28 125.82 311.36 C 126.11 316.58 127.31 321.78 132.60 324.04 C 132.42 325.91 132.24 327.79 132.09 329.67 C 130.21 330.10 128.37 330.64 126.55 331.25 Z" />
<path fill="#ffffff" opacity="1.00" d=" M 133.28 324.89 C 136.20 321.00 137.86 316.35 140.76 312.44 C 141.26 318.04 142.69 323.48 143.92 328.95 C 141.15 330.40 138.02 330.66 134.95 330.86 C 134.37 328.88 133.85 326.87 133.28 324.89 Z" />
<path fill="#ffffff" opacity="1.00" d=" M 312.18 325.29 C 312.71 325.56 313.78 326.11 314.32 326.39 C 312.54 328.08 311.07 332.16 308.07 330.24 C 309.38 328.54 310.77 326.91 312.18 325.29 Z" />
<path fill="#ffffff" opacity="1.00" d=" M 167.97 331.39 C 170.64 331.21 173.30 331.58 175.97 331.80 C 175.96 334.13 175.91 336.47 175.82 338.81 C 175.35 339.07 174.40 339.59 173.92 339.85 C 173.34 338.24 172.79 336.62 172.29 334.99 C 171.79 334.93 170.79 334.83 170.29 334.78 C 169.71 333.93 168.55 332.24 167.97 331.39 Z" />
<path fill="#ffffff" opacity="1.00" d=" M 379.19 347.17 C 374.46 342.60 375.51 329.90 383.87 331.21 C 394.67 335.09 400.44 349.31 394.80 359.54 C 392.21 359.96 389.49 360.42 387.25 358.73 C 391.23 358.14 394.72 356.15 396.02 352.13 C 394.32 353.32 392.79 354.74 391.04 355.86 C 393.11 348.99 390.58 339.55 382.99 337.51 C 377.93 337.45 379.07 343.89 379.19 347.17 Z" />
<path fill="#ffffff" opacity="1.00" d=" M 125.66 334.22 C 128.03 333.25 130.47 332.44 132.94 331.75 C 132.82 335.85 132.96 339.96 132.68 344.06 C 128.60 344.22 126.73 337.78 125.66 334.22 Z" />
<path fill="#ffffff" opacity="1.00" d=" M 288.98 333.29 C 291.00 332.76 293.02 332.23 295.04 331.74 C 295.23 332.29 295.60 333.40 295.79 333.95 C 293.72 334.54 291.65 335.10 289.58 335.66 C 289.43 335.07 289.13 333.88 288.98 333.29 Z" />
<path fill="#ffffff" opacity="1.00" d=" M 199.37 336.40 C 202.64 335.31 204.12 340.96 200.61 341.53 C 197.40 342.48 196.03 337.04 199.37 336.40 Z" />
<path fill="#ffffff" opacity="1.00" d=" M 230.16 342.24 C 232.34 340.78 234.29 339.03 236.24 337.29 C 236.46 340.83 233.63 343.39 230.16 342.24 Z" />
<path fill="#ffffff" opacity="1.00" d=" M 146.80 346.10 C 147.41 345.80 148.63 345.19 149.23 344.88 C 151.50 348.02 154.23 356.30 148.05 356.22 C 146.07 353.30 147.01 349.43 146.80 346.10 Z" />
<path fill="#ffffff" opacity="1.00" d=" M 135.95 345.69 C 136.50 346.11 137.61 346.95 138.16 347.38 C 138.86 347.29 140.26 347.11 140.96 347.02 C 141.85 349.25 142.63 351.54 143.28 353.86 C 140.12 353.87 136.99 353.40 133.94 352.61 C 133.78 350.10 134.56 347.75 135.95 345.69 Z" />
<path fill="#ffffff" opacity="1.00" d=" M 272.01 345.58 C 274.09 346.15 276.12 346.89 278.06 347.84 C 277.44 348.77 276.83 349.69 276.21 350.61 C 274.49 350.10 272.79 349.58 271.08 349.07 C 271.38 347.90 271.69 346.74 272.01 345.58 Z" />
<path fill="#ffffff" opacity="1.00" d=" M 154.79 350.40 C 156.76 351.10 158.67 351.98 160.56 352.89 C 159.86 354.48 159.11 356.04 158.27 357.56 C 156.61 356.52 154.95 355.51 153.38 354.36 C 154.07 354.67 155.46 355.30 156.15 355.61 C 155.69 353.87 155.20 352.14 154.79 350.40 Z" />
<path fill="#ffffff" opacity="1.00" d=" M 256.21 363.43 C 254.27 362.32 248.43 359.76 251.95 357.63 C 254.03 358.99 256.09 360.74 256.21 363.43 Z" />
<path fill="#ffffff" opacity="1.00" d=" M 301.52 360.54 C 305.54 372.88 303.42 389.66 291.51 396.87 C 295.75 390.55 300.37 383.98 300.89 376.10 C 300.97 370.90 301.61 365.73 301.52 360.54 Z" />
<path fill="#ffffff" opacity="1.00" d=" M 134.18 368.30 C 140.37 367.31 145.95 370.33 151.48 372.59 C 149.56 375.72 149.78 379.35 152.29 382.07 C 147.99 385.05 143.67 388.01 139.37 390.98 C 135.66 387.23 131.76 383.22 130.23 378.03 C 131.06 374.61 132.87 371.54 134.18 368.30 Z" />
<path fill="#ffffff" opacity="1.00" d=" M 209.18 368.24 C 211.07 366.31 214.16 369.37 212.28 371.22 C 210.56 373.66 206.94 370.18 209.18 368.24 Z" />
<path fill="#ffffff" opacity="1.00" d=" M 185.68 379.87 C 190.00 376.85 194.01 373.37 198.66 370.85 C 198.93 371.30 199.47 372.20 199.75 372.65 C 195.62 375.32 191.60 378.12 187.79 381.22 C 187.26 380.88 186.21 380.21 185.68 379.87 Z" />
<path fill="#ffffff" opacity="1.00" d=" M 198.58 377.40 C 201.11 375.68 203.54 373.73 206.45 372.67 C 204.03 375.08 201.02 376.76 198.31 378.81 C 198.33 378.26 198.37 377.17 198.38 376.62 C 197.62 377.02 196.09 377.82 195.32 378.22 C 195.83 378.71 196.85 379.69 197.35 380.18 C 195.95 380.57 194.56 380.54 193.19 380.10 C 194.47 382.15 191.99 383.10 190.85 384.40 C 189.92 383.71 189.00 383.03 188.07 382.36 C 191.87 380.20 195.34 377.57 198.74 374.86 C 198.70 375.49 198.62 376.77 198.58 377.40 Z" />
<path fill="#ffffff" opacity="1.00" d=" M 300.97 410.04 C 300.05 399.50 303.93 387.27 313.68 381.89 C 311.18 386.59 307.43 390.57 305.54 395.60 C 301.80 405.03 303.37 416.37 309.67 424.36 C 312.20 427.79 315.94 430.05 318.59 433.37 C 309.20 429.44 301.64 420.43 300.97 410.04 Z" />
<path fill="#ffffff" opacity="1.00" d=" M 100.61 428.66 C 120.16 416.25 138.99 402.75 158.21 389.85 C 158.08 391.53 158.44 393.70 156.57 394.58 C 140.97 405.76 124.82 416.09 109.15 427.15 C 103.14 430.04 98.60 435.42 92.08 437.27 C 94.35 433.90 97.25 430.94 100.61 428.66 Z" />
<path fill="#ffffff" opacity="1.00" d=" M 236.14 392.14 C 237.01 393.13 237.87 394.13 238.74 395.14 C 237.20 396.79 235.53 398.31 233.68 399.60 C 234.21 397.02 235.15 394.57 236.14 392.14 Z" />
<path fill="#ffffff" opacity="1.00" d=" M 348.14 418.97 C 350.77 417.88 352.81 420.94 354.13 422.85 C 351.70 424.59 348.92 421.15 348.14 418.97 Z" />
<path fill="#ffffff" opacity="1.00" d=" M 128.66 446.31 C 129.70 445.48 130.76 444.66 131.82 443.84 C 134.31 446.52 136.74 449.28 138.94 452.21 C 135.05 458.69 131.70 449.11 128.66 446.31 Z" />
</g>
<g id="#000000ff">
<path fill="#000000" opacity="1.00" d=" M 151.79 24.22 C 186.35 9.50 223.75 -0.54 261.59 1.57 C 306.94 4.77 351.88 21.68 386.34 51.66 C 403.86 66.91 418.47 85.43 429.48 105.87 C 418.93 110.76 408.31 115.49 397.77 120.39 C 398.26 121.73 398.76 123.06 399.27 124.40 C 409.99 119.45 420.76 114.57 431.53 109.72 C 437.56 121.65 442.54 134.10 446.33 146.92 C 434.14 151.86 421.84 156.49 409.61 161.34 C 410.10 162.69 410.60 164.04 411.11 165.39 C 423.21 160.56 435.36 155.85 447.51 151.12 C 449.20 157.21 450.60 163.38 451.81 169.59 C 438.88 174.84 425.96 180.10 413.02 185.30 C 414.00 217.10 403.36 248.08 388.71 275.87 C 398.29 303.96 409.03 331.72 418.30 359.89 C 415.26 369.56 410.32 378.87 403.03 386.01 C 400.72 388.59 396.42 389.47 393.43 387.59 C 381.39 380.66 369.41 373.62 357.32 366.77 C 356.07 368.77 354.82 370.77 353.58 372.77 C 367.83 381.54 375.41 399.69 371.04 415.93 C 366.89 434.00 348.54 447.30 330.06 445.53 C 309.72 444.52 292.94 425.68 293.58 405.44 C 290.02 405.68 286.48 405.95 282.93 406.25 C 281.76 402.93 280.68 399.57 279.61 396.22 C 289.60 390.81 295.68 379.18 293.78 367.88 C 293.99 364.29 290.94 360.83 292.35 357.40 C 296.90 351.89 302.43 347.30 307.35 342.14 C 311.95 344.11 317.29 344.92 321.95 342.69 C 317.52 342.61 313.06 342.32 308.85 340.84 C 309.61 339.95 310.39 339.06 311.17 338.18 C 317.26 340.32 324.79 339.04 328.13 333.00 C 321.10 337.15 311.04 337.20 305.86 330.11 C 300.41 323.63 302.56 314.35 307.59 308.34 C 302.74 309.69 301.55 315.16 300.32 319.36 C 297.92 325.93 302.73 332.37 307.60 336.33 C 303.33 341.78 298.26 346.57 293.11 351.18 C 289.86 354.55 284.89 352.01 281.78 349.73 C 280.97 350.49 280.15 351.27 279.35 352.05 C 291.36 359.56 294.31 377.85 284.12 388.08 C 274.31 399.38 254.13 397.15 247.06 383.95 C 239.36 371.71 246.22 354.38 259.72 349.85 C 259.15 348.79 258.57 347.73 258.00 346.68 C 247.37 350.63 240.02 361.26 240.04 372.60 C 239.23 372.77 237.61 373.09 236.80 373.25 C 237.79 378.03 237.88 382.93 237.23 387.77 C 237.92 388.46 238.61 389.17 239.30 389.88 C 241.29 389.34 243.28 388.79 245.28 388.30 C 252.36 397.35 264.81 401.45 275.81 397.85 C 276.79 400.83 277.77 403.80 278.76 406.78 C 249.02 410.80 219.58 422.75 197.86 443.86 C 181.14 460.39 170.74 482.43 165.80 505.23 C 123.48 506.30 81.15 507.36 38.82 508.34 C 40.09 504.92 39.82 500.27 43.37 498.25 C 66.43 482.28 89.42 466.21 112.41 450.16 C 112.52 445.96 111.13 441.38 112.32 437.40 C 118.00 433.05 123.96 429.05 129.85 424.97 C 133.72 426.67 137.62 428.34 141.54 429.93 C 153.62 421.47 165.50 412.70 177.92 404.73 C 187.51 415.37 204.58 419.14 216.86 410.89 C 204.50 415.05 189.88 411.63 181.70 401.18 C 182.24 399.94 182.75 398.70 183.25 397.45 C 186.61 397.94 190.07 398.17 193.41 397.35 C 193.39 395.98 193.37 394.62 193.35 393.26 C 202.19 385.95 212.38 380.49 221.35 373.34 C 221.95 372.21 222.40 371.02 222.71 369.76 C 217.15 369.37 216.72 375.61 212.67 377.78 C 204.77 383.17 196.98 388.72 189.09 394.12 C 186.61 396.21 184.18 392.81 181.87 391.94 C 181.53 392.57 180.86 393.84 180.52 394.48 C 175.68 392.91 175.41 387.28 175.18 383.02 C 174.30 368.82 185.63 355.06 199.96 353.95 C 212.61 352.29 225.21 360.51 229.49 372.40 C 231.28 371.72 233.06 371.01 234.83 370.28 C 231.78 364.36 228.61 358.00 222.99 354.11 C 208.29 342.85 185.47 347.07 175.09 362.19 C 160.88 359.61 146.66 357.10 132.45 354.50 C 131.86 357.38 131.33 360.28 130.84 363.19 C 144.18 365.63 157.51 368.07 170.86 370.41 C 167.37 380.86 169.11 392.69 175.45 401.70 C 164.09 409.90 152.62 417.93 141.00 425.75 C 137.04 424.29 133.35 421.96 129.22 421.10 C 122.04 425.86 115.10 430.99 107.95 435.81 C 108.21 439.95 108.44 444.10 108.63 448.25 C 91.94 460.10 75.09 471.76 58.25 483.41 C 56.43 477.99 53.67 472.80 52.42 467.24 C 62.23 435.38 73.57 403.97 82.96 371.97 C 85.63 362.16 88.11 350.92 82.38 341.66 C 67.34 315.47 36.66 299.89 6.70 301.24 C 5.04 298.59 3.42 295.92 1.79 293.26 C 23.19 283.62 44.68 274.16 65.91 264.16 C 65.69 259.85 65.37 255.56 64.94 251.28 C 69.25 249.44 73.56 247.61 77.85 245.74 C 77.93 244.30 78.01 242.87 78.08 241.44 C 71.91 243.87 65.88 246.65 59.74 249.14 C 59.93 253.53 60.17 257.91 60.77 262.27 C 51.05 266.92 41.25 271.43 31.34 275.67 C 61.54 224.85 93.99 174.79 134.46 131.45 C 155.33 109.26 179.99 90.23 208.01 77.99 C 227.89 69.38 249.83 64.24 271.56 66.62 C 305.00 70.68 336.40 88.08 358.13 113.75 C 361.53 111.63 364.93 109.51 368.35 107.41 C 342.69 74.22 301.37 55.30 260.05 52.23 C 208.75 50.76 159.95 72.53 117.68 99.89 C 107.63 81.85 97.67 63.75 87.63 45.71 C 91.16 43.76 94.73 41.88 98.29 39.97 C 100.84 42.19 103.36 44.44 105.89 46.68 C 119.63 39.22 133.62 32.20 147.92 25.88 C 153.67 38.22 159.49 50.51 165.36 62.79 C 166.63 62.19 167.90 61.59 169.17 60.98 C 163.12 48.83 157.18 36.69 151.79 24.22 M 180.34 26.83 C 180.02 26.63 179.38 26.21 179.06 26.00 C 177.42 26.75 175.77 27.48 174.22 28.39 C 170.55 26.87 168.07 32.09 172.02 33.54 C 175.64 32.37 179.01 30.47 182.78 29.68 C 183.00 29.04 183.44 27.74 183.66 27.09 C 184.19 27.29 184.73 27.48 185.26 27.68 C 189.74 26.22 194.33 25.19 198.56 22.96 C 198.06 21.68 197.56 20.41 197.05 19.14 C 191.54 21.59 183.94 21.53 180.34 26.83 M 200.75 28.83 C 197.89 30.31 193.97 30.41 192.31 33.55 C 198.48 31.94 204.59 29.65 210.29 26.77 C 206.97 25.15 203.87 27.94 200.75 28.83 M 185.20 31.28 C 181.27 34.04 174.25 32.97 172.37 37.96 C 173.24 37.60 174.98 36.88 175.85 36.53 C 176.37 36.93 176.89 37.34 177.42 37.74 C 175.67 38.37 173.59 39.12 173.41 41.31 C 179.79 39.10 186.92 37.57 192.00 32.89 C 186.79 33.57 182.21 36.43 177.04 37.26 C 178.94 35.72 181.25 34.84 183.24 33.44 C 188.05 32.40 192.49 30.20 197.04 28.39 C 193.10 26.14 188.91 30.03 185.20 31.28 M 377.50 103.41 C 382.45 111.64 387.88 119.57 392.97 127.68 C 393.44 127.22 394.36 126.29 394.83 125.82 C 390.96 118.02 386.20 110.62 380.87 103.75 C 380.03 103.67 378.34 103.50 377.50 103.41 M 264.93 112.66 C 247.08 115.15 230.37 122.44 214.25 130.18 C 210.64 131.60 209.33 135.56 206.81 138.20 C 205.44 137.53 204.08 136.85 202.71 136.18 C 192.10 142.56 180.69 147.94 171.16 155.93 C 177.56 165.67 186.39 173.62 193.62 182.77 C 193.45 184.82 193.28 186.87 193.14 188.93 C 197.19 191.96 198.91 186.53 202.33 185.34 C 236.58 169.59 270.88 153.92 305.09 138.06 C 298.98 130.42 288.70 128.96 281.47 122.77 C 281.04 123.30 280.16 124.36 279.72 124.89 C 273.53 123.90 267.23 123.73 261.01 124.56 C 258.57 125.18 256.97 122.90 255.44 121.44 C 263.39 119.97 272.77 115.57 280.04 121.02 C 284.25 123.55 289.04 119.53 293.32 121.74 C 296.33 123.28 299.26 125.08 302.60 125.89 C 299.18 118.86 290.49 117.94 284.16 114.74 C 278.33 111.45 271.34 111.99 264.93 112.66 M 341.46 133.70 C 348.31 133.62 355.05 134.31 361.73 135.80 C 358.74 132.07 353.77 130.98 350.00 128.23 C 346.93 129.65 343.30 130.60 341.46 133.70 M 380.27 128.90 C 378.57 129.35 379.28 132.19 381.00 131.69 C 382.75 131.30 381.98 128.37 380.27 128.90 M 325.39 139.41 C 312.99 146.56 299.23 150.82 286.59 157.51 C 260.06 169.54 233.48 181.52 207.10 193.90 C 206.37 201.51 204.53 208.99 204.16 216.63 C 208.10 210.70 207.20 202.70 210.57 196.64 C 232.68 185.83 255.25 176.02 277.63 165.80 C 279.23 166.41 280.86 166.93 282.50 167.43 C 280.14 174.19 279.50 182.59 284.98 188.06 C 291.37 195.30 303.50 194.27 309.37 186.89 C 307.34 187.47 305.33 188.12 303.31 188.69 C 305.87 182.75 312.20 176.10 307.32 169.59 C 308.99 166.50 306.56 164.59 304.09 163.11 C 303.30 163.94 302.53 164.78 301.77 165.63 C 300.35 165.17 298.91 164.74 297.48 164.33 C 296.32 162.31 295.00 160.40 293.53 158.59 C 309.08 150.77 325.65 144.14 339.50 133.51 C 334.50 134.69 330.18 137.64 325.39 139.41 M 382.39 135.03 C 385.92 144.12 388.49 153.77 392.54 162.52 C 391.72 155.64 389.86 148.93 387.63 142.39 C 386.51 139.54 385.67 136.11 382.39 135.03 M 390.31 163.62 C 389.47 169.85 388.43 176.04 386.53 182.05 C 388.93 181.27 391.33 180.47 393.70 179.60 C 393.14 174.35 396.12 166.65 390.31 163.62 M 141.49 188.53 C 134.04 201.16 136.72 217.04 131.27 230.36 C 125.00 234.38 117.56 236.65 110.90 240.12 C 106.78 237.73 102.79 235.14 98.75 232.64 C 93.54 235.59 84.74 235.76 83.62 242.92 C 88.23 241.45 92.64 239.44 97.09 237.58 C 101.24 239.82 105.04 242.66 109.21 244.86 C 116.60 242.40 123.38 238.35 130.67 235.58 C 127.57 242.23 133.25 248.86 130.70 255.62 C 127.81 261.10 124.10 266.12 121.50 271.75 C 121.87 271.92 122.61 272.26 122.98 272.43 C 123.92 269.63 128.06 268.77 129.05 271.96 C 132.15 279.37 138.88 284.02 143.65 290.13 C 141.06 294.90 137.68 300.28 133.58 303.52 C 133.97 302.22 134.40 300.96 134.84 299.69 C 130.67 296.78 135.64 291.61 135.34 287.66 C 132.12 287.00 127.63 287.67 126.75 291.42 C 126.02 297.91 119.84 304.05 124.70 310.36 C 125.06 309.73 125.77 308.46 126.13 307.83 C 127.27 308.42 128.41 309.01 129.56 309.59 C 130.33 312.56 131.11 315.52 132.04 318.45 C 133.53 315.44 134.63 312.28 135.63 309.08 C 137.81 308.16 140.13 307.89 142.26 309.12 C 142.95 310.82 143.60 312.60 144.91 313.94 C 147.39 311.53 149.24 308.29 152.95 307.61 C 149.64 313.50 150.25 320.91 145.91 326.27 C 146.31 329.14 146.39 332.07 145.61 334.89 C 142.43 334.76 139.34 334.02 136.47 332.65 C 135.06 337.76 139.23 341.81 143.08 344.39 C 144.96 344.17 145.51 342.15 146.56 340.87 C 146.33 339.67 146.10 338.47 145.88 337.27 C 148.69 339.46 151.04 343.01 154.89 343.28 C 156.92 340.41 155.34 337.08 154.56 334.09 C 159.63 335.87 161.68 340.78 165.01 344.43 C 168.12 340.85 169.28 335.04 166.03 331.19 C 160.40 329.08 150.46 336.69 148.33 329.16 C 149.97 328.81 151.62 328.49 153.27 328.16 C 153.35 326.21 153.42 324.28 153.48 322.34 C 154.20 321.81 154.91 321.29 155.62 320.76 C 156.36 321.76 157.11 322.76 157.86 323.76 C 158.23 325.63 157.56 330.76 160.79 328.91 C 164.46 328.44 164.01 324.39 164.37 321.68 C 166.98 323.55 168.22 326.42 168.05 329.64 C 168.27 329.89 168.70 330.41 168.91 330.67 C 169.49 327.95 172.41 328.27 174.03 326.76 C 175.09 322.85 173.47 318.78 172.78 314.91 C 171.89 314.69 171.00 314.47 170.12 314.25 C 169.36 316.28 168.64 318.32 167.88 320.35 C 165.63 318.22 163.61 315.87 161.61 313.51 C 160.36 316.01 159.03 318.54 156.79 320.31 C 155.87 315.92 152.64 311.66 154.04 307.05 C 154.92 308.46 155.68 309.94 156.48 311.40 C 158.22 310.73 159.43 309.35 160.35 307.78 C 161.30 307.68 162.25 307.59 163.20 307.51 C 164.66 305.62 166.19 303.74 168.20 302.41 C 167.65 304.57 166.90 306.68 166.13 308.77 C 166.90 309.00 168.45 309.46 169.22 309.69 C 173.64 307.12 172.91 301.69 174.68 297.54 C 172.83 297.34 170.96 297.20 169.10 297.08 C 168.58 297.92 168.07 298.77 167.55 299.62 C 166.91 299.70 165.62 299.85 164.98 299.93 C 165.86 298.13 166.73 296.34 167.56 294.52 C 171.50 293.64 175.47 292.79 179.14 291.06 C 177.39 288.01 175.43 285.09 173.43 282.20 C 172.05 282.47 170.68 282.74 169.32 283.02 C 166.25 279.79 161.42 276.98 158.54 282.06 C 158.63 282.69 158.81 283.96 158.90 284.59 C 158.10 285.65 157.30 286.71 156.52 287.79 C 155.44 286.34 154.33 284.91 153.19 283.51 C 154.66 275.87 161.56 271.05 163.25 263.70 C 160.61 265.12 158.99 267.68 157.14 269.91 C 156.51 266.65 155.99 263.37 155.64 260.06 C 160.07 254.87 159.66 246.49 166.24 243.00 C 165.44 242.97 163.84 242.91 163.04 242.88 C 160.84 245.28 158.47 247.53 156.25 249.92 C 156.45 253.67 153.24 255.39 150.13 256.28 C 149.57 255.73 148.46 254.64 147.90 254.09 C 147.08 256.77 145.91 259.56 147.04 262.34 C 145.95 263.84 144.78 265.29 143.47 266.60 C 141.97 260.66 137.56 256.56 132.84 253.03 C 132.53 249.90 131.89 246.65 133.20 243.64 C 132.16 242.68 131.12 241.72 130.11 240.74 C 133.89 238.63 136.86 243.75 140.10 245.23 C 141.55 243.14 143.00 241.04 144.42 238.93 C 143.50 236.00 143.82 232.93 143.89 229.92 C 150.13 230.52 156.38 230.79 162.62 230.49 C 166.86 232.85 169.93 236.90 173.70 239.95 C 176.14 236.96 181.11 234.69 180.55 230.24 C 180.27 224.91 172.17 224.09 173.34 218.25 C 175.85 214.00 177.88 209.50 179.83 204.95 C 182.30 201.91 185.76 199.77 189.08 197.74 C 188.72 200.67 187.34 203.27 184.66 204.67 C 183.59 208.41 181.85 212.06 181.61 215.98 C 181.46 221.90 188.08 223.97 191.77 227.40 C 193.00 218.66 195.02 209.99 195.49 201.17 C 195.81 200.15 196.02 199.10 196.12 198.03 C 193.81 197.81 191.67 196.96 189.67 195.83 C 190.03 194.67 190.41 193.52 190.79 192.37 C 182.78 183.95 174.92 175.39 166.88 167.02 C 158.44 174.20 149.16 180.53 141.49 188.53 M 378.44 188.53 C 371.44 191.94 364.03 194.60 357.62 199.10 C 356.62 203.72 362.26 200.25 364.42 199.46 C 372.23 194.92 381.71 192.98 388.27 186.56 C 384.81 184.86 381.54 187.19 378.44 188.53 M 353.31 200.44 C 353.08 201.26 352.62 202.92 352.39 203.75 C 351.62 204.13 350.85 204.51 350.09 204.90 C 350.16 205.54 350.30 206.81 350.37 207.44 C 353.36 209.46 354.93 214.16 351.49 216.57 C 348.33 219.11 344.62 216.37 342.21 214.16 C 343.45 211.53 344.91 209.02 346.71 206.74 C 341.88 205.73 338.62 211.50 340.66 215.56 C 341.98 219.53 346.27 221.12 350.13 221.14 C 351.03 223.61 351.72 226.14 352.45 228.66 C 355.98 220.21 355.81 211.01 359.28 202.56 C 358.58 202.78 357.18 203.23 356.48 203.45 C 355.45 202.41 354.40 201.40 353.31 200.44 M 202.94 220.18 C 202.87 221.93 202.80 223.70 203.17 225.42 C 203.86 223.81 204.49 222.18 205.08 220.53 C 204.54 220.45 203.47 220.27 202.94 220.18 M 225.85 237.81 C 221.89 240.15 223.71 245.51 225.83 248.59 C 225.51 246.96 225.10 245.35 224.67 243.75 C 226.27 240.71 229.69 237.32 233.29 239.72 C 237.30 242.01 235.68 247.13 232.76 249.58 C 253.74 247.95 274.03 255.56 294.71 257.94 C 294.09 256.71 293.59 255.10 291.92 255.14 C 275.30 252.05 258.66 249.11 242.00 246.26 C 239.13 246.42 239.27 243.22 238.52 241.31 C 237.20 236.15 229.47 233.41 225.85 237.81 M 177.52 243.59 C 186.97 249.22 183.47 261.64 182.91 270.75 C 182.29 271.07 181.05 271.71 180.43 272.03 C 181.02 273.12 181.62 274.22 182.20 275.32 C 180.67 276.11 179.15 276.94 177.67 277.82 C 179.95 281.05 184.97 287.82 188.72 282.74 C 191.09 278.67 194.84 276.01 198.97 273.92 C 197.53 270.11 197.45 264.58 202.22 263.22 C 207.49 261.39 211.40 267.03 210.19 271.83 C 213.02 269.56 216.46 268.45 220.10 268.67 C 221.08 266.67 221.90 264.58 222.44 262.42 C 226.64 258.41 220.39 257.56 217.25 256.57 C 216.00 252.83 214.81 249.07 213.58 245.33 C 207.46 242.37 201.09 243.70 196.26 248.29 C 191.67 245.15 185.57 243.28 183.35 237.65 C 181.39 239.62 179.44 241.58 177.52 243.59 M 303.36 258.90 C 303.93 259.25 305.07 259.97 305.64 260.33 C 306.56 256.97 308.63 252.53 312.95 253.76 C 317.44 254.79 317.37 260.10 315.54 263.39 C 323.58 261.42 331.83 267.15 339.43 264.50 C 333.84 262.62 327.95 261.94 322.20 260.72 C 321.79 259.52 321.39 258.32 320.97 257.13 C 318.25 254.68 316.24 250.58 312.01 250.74 C 307.29 250.33 303.85 254.53 303.36 258.90 M 232.83 259.11 C 229.37 265.65 226.21 272.35 223.14 279.09 C 222.54 280.65 221.26 283.05 223.45 283.94 C 227.24 276.69 230.68 269.26 234.10 261.82 C 239.69 262.77 245.30 263.62 250.81 264.96 C 251.33 272.08 253.55 280.08 260.39 283.62 C 269.81 289.52 283.51 284.74 287.31 274.32 C 287.74 271.50 290.71 271.94 292.85 271.43 C 291.06 268.97 287.84 269.12 285.17 268.50 C 284.07 276.69 276.56 283.73 268.03 282.41 C 258.87 281.63 252.92 271.76 255.17 263.11 C 247.71 261.83 240.28 260.39 232.83 259.11 M 169.44 266.85 C 170.89 268.25 172.40 269.60 173.95 270.90 C 175.11 269.68 176.28 268.46 177.42 267.22 C 174.76 267.07 172.10 266.93 169.44 266.85 M 323.53 269.94 C 326.22 270.00 328.88 269.46 331.36 268.40 C 328.58 267.28 324.49 265.96 323.53 269.94 M 126.29 283.78 C 127.12 284.11 127.95 284.44 128.79 284.78 C 129.08 284.35 129.67 283.50 129.96 283.07 C 127.87 279.42 125.98 275.63 123.36 272.32 C 123.23 276.31 125.66 279.87 126.29 283.78 M 203.40 276.46 C 202.93 277.68 202.47 278.91 202.01 280.14 C 205.78 280.05 209.55 280.32 213.24 281.07 C 214.69 278.55 216.07 276.00 217.41 273.43 C 212.71 274.30 208.03 275.30 203.40 276.46 M 312.75 274.45 C 313.40 275.09 314.69 276.38 315.33 277.03 C 314.90 283.60 314.29 290.16 313.80 296.73 C 299.71 305.31 285.77 314.18 271.56 322.56 C 262.93 322.05 254.34 319.61 245.73 318.36 C 241.81 312.26 238.64 305.62 234.00 300.01 C 232.87 303.48 233.76 306.91 235.70 309.88 C 234.50 313.81 234.83 318.66 231.49 321.59 C 229.24 323.11 231.55 325.52 232.03 327.44 C 230.14 327.91 228.26 328.42 226.39 328.96 C 224.74 326.48 221.04 323.86 223.80 320.80 C 227.74 315.06 227.94 307.11 222.55 302.18 C 226.38 312.97 219.75 326.36 207.86 327.60 C 199.01 329.01 189.84 322.83 187.82 314.10 C 186.39 309.33 188.22 304.52 188.59 299.75 C 182.82 304.96 182.79 314.03 186.69 320.34 C 191.48 329.11 202.72 333.36 212.15 330.12 C 216.08 328.32 219.29 331.38 222.00 333.80 C 219.08 340.40 222.89 348.05 229.65 350.19 C 229.61 352.32 229.73 354.49 232.28 355.00 C 232.85 353.46 233.38 351.91 233.93 350.37 C 239.17 349.08 243.76 344.67 243.65 339.00 C 243.92 334.52 240.54 331.31 238.00 328.10 C 240.61 327.61 243.25 327.25 245.88 326.92 C 247.12 329.53 248.34 332.16 249.50 334.81 C 248.07 337.47 247.81 340.45 250.49 342.41 C 258.83 337.63 268.73 337.61 277.84 339.30 C 279.83 332.66 280.58 325.58 283.12 319.17 C 290.83 313.33 299.52 308.81 307.74 303.74 C 315.29 303.73 324.53 302.46 330.16 308.88 C 337.56 316.12 335.73 329.19 327.36 334.92 C 328.06 337.77 328.75 340.62 329.46 343.47 C 334.24 342.58 337.66 346.41 341.42 348.59 C 358.39 360.48 375.77 371.76 392.84 383.50 C 398.32 383.60 404.32 381.26 405.72 375.41 C 401.76 377.55 397.55 381.31 392.73 379.17 C 372.45 366.70 353.13 352.52 333.04 339.78 C 335.39 337.12 336.54 333.67 336.84 330.17 C 340.25 328.70 343.68 327.29 347.14 325.94 C 349.47 313.00 342.40 298.68 330.09 293.65 C 329.51 293.98 328.35 294.63 327.77 294.96 C 337.61 299.34 344.68 309.04 345.10 319.91 C 342.26 321.30 339.47 322.80 336.48 323.86 C 338.15 313.93 332.49 303.52 322.94 300.08 C 313.30 295.07 319.10 282.77 318.57 274.37 C 316.63 274.19 314.68 274.16 312.75 274.45 M 230.09 296.56 C 229.75 293.38 229.35 289.94 226.86 287.63 C 222.69 289.40 228.34 294.33 230.09 296.56 M 244.75 297.95 C 247.73 295.68 250.47 293.11 252.98 290.34 C 249.36 289.21 243.81 294.11 244.75 297.95 M 277.71 294.67 C 279.09 298.19 280.78 301.57 282.65 304.85 C 285.29 301.87 281.51 294.88 277.71 294.67 M 193.24 299.07 C 192.03 301.07 196.05 302.97 197.83 303.89 C 199.69 301.72 194.60 297.76 193.24 299.07 M 126.55 331.25 C 128.37 330.64 130.21 330.10 132.09 329.67 C 132.24 327.79 132.42 325.91 132.60 324.04 C 127.31 321.78 126.11 316.58 125.82 311.36 C 123.88 317.28 120.26 326.98 126.55 331.25 M 133.28 324.89 C 133.85 326.87 134.37 328.88 134.95 330.86 C 138.02 330.66 141.15 330.40 143.92 328.95 C 142.69 323.48 141.26 318.04 140.76 312.44 C 137.86 316.35 136.20 321.00 133.28 324.89 M 312.18 325.29 C 310.77 326.91 309.38 328.54 308.07 330.24 C 311.07 332.16 312.54 328.08 314.32 326.39 C 313.78 326.11 312.71 325.56 312.18 325.29 M 167.97 331.39 C 168.55 332.24 169.71 333.93 170.29 334.78 C 170.79 334.83 171.79 334.93 172.29 334.99 C 172.79 336.62 173.34 338.24 173.92 339.85 C 174.40 339.59 175.35 339.07 175.82 338.81 C 175.91 336.47 175.96 334.13 175.97 331.80 C 173.30 331.58 170.64 331.21 167.97 331.39 M 379.19 347.17 C 379.07 343.89 377.93 337.45 382.99 337.51 C 390.58 339.55 393.11 348.99 391.04 355.86 C 392.79 354.74 394.32 353.32 396.02 352.13 C 394.72 356.15 391.23 358.14 387.25 358.73 C 389.49 360.42 392.21 359.96 394.80 359.54 C 400.44 349.31 394.67 335.09 383.87 331.21 C 375.51 329.90 374.46 342.60 379.19 347.17 M 125.66 334.22 C 126.73 337.78 128.60 344.22 132.68 344.06 C 132.96 339.96 132.82 335.85 132.94 331.75 C 130.47 332.44 128.03 333.25 125.66 334.22 M 288.98 333.29 C 289.13 333.88 289.43 335.07 289.58 335.66 C 291.65 335.10 293.72 334.54 295.79 333.95 C 295.60 333.40 295.23 332.29 295.04 331.74 C 293.02 332.23 291.00 332.76 288.98 333.29 M 199.37 336.40 C 196.03 337.04 197.40 342.48 200.61 341.53 C 204.12 340.96 202.64 335.31 199.37 336.40 M 146.80 346.10 C 147.01 349.43 146.07 353.30 148.05 356.22 C 154.23 356.30 151.50 348.02 149.23 344.88 C 148.63 345.19 147.41 345.80 146.80 346.10 M 135.95 345.69 C 134.56 347.75 133.78 350.10 133.94 352.61 C 136.99 353.40 140.12 353.87 143.28 353.86 C 142.63 351.54 141.85 349.25 140.96 347.02 C 140.26 347.11 138.86 347.29 138.16 347.38 C 137.61 346.95 136.50 346.11 135.95 345.69 M 272.01 345.58 C 271.69 346.74 271.38 347.90 271.08 349.07 C 272.79 349.58 274.49 350.10 276.21 350.61 C 276.83 349.69 277.44 348.77 278.06 347.84 C 276.12 346.89 274.09 346.15 272.01 345.58 M 154.79 350.40 C 155.20 352.14 155.69 353.87 156.15 355.61 C 155.46 355.30 154.07 354.67 153.38 354.36 C 154.95 355.51 156.61 356.52 158.27 357.56 C 159.11 356.04 159.86 354.48 160.56 352.89 C 158.67 351.98 156.76 351.10 154.79 350.40 M 256.21 363.43 C 256.09 360.74 254.03 358.99 251.95 357.63 C 248.43 359.76 254.27 362.32 256.21 363.43 M 301.52 360.54 C 301.61 365.73 300.97 370.90 300.89 376.10 C 300.37 383.98 295.75 390.55 291.51 396.87 C 303.42 389.66 305.54 372.88 301.52 360.54 M 134.18 368.30 C 132.87 371.54 131.06 374.61 130.23 378.03 C 131.76 383.22 135.66 387.23 139.37 390.98 C 143.67 388.01 147.99 385.05 152.29 382.07 C 149.78 379.35 149.56 375.72 151.48 372.59 C 145.95 370.33 140.37 367.31 134.18 368.30 M 209.18 368.24 C 206.94 370.18 210.56 373.66 212.28 371.22 C 214.16 369.37 211.07 366.31 209.18 368.24 M 185.68 379.87 C 186.21 380.21 187.26 380.88 187.79 381.22 C 191.60 378.12 195.62 375.32 199.75 372.65 C 199.47 372.20 198.93 371.30 198.66 370.85 C 194.01 373.37 190.00 376.85 185.68 379.87 M 198.58 377.40 C 198.62 376.77 198.70 375.49 198.74 374.86 C 195.34 377.57 191.87 380.20 188.07 382.36 C 189.00 383.03 189.92 383.71 190.85 384.40 C 191.99 383.10 194.47 382.15 193.19 380.10 C 194.56 380.54 195.95 380.57 197.35 380.18 C 196.85 379.69 195.83 378.71 195.32 378.22 C 196.09 377.82 197.62 377.02 198.38 376.62 C 198.37 377.17 198.33 378.26 198.31 378.81 C 201.02 376.76 204.03 375.08 206.45 372.67 C 203.54 373.73 201.11 375.68 198.58 377.40 M 300.97 410.04 C 301.64 420.43 309.20 429.44 318.59 433.37 C 315.94 430.05 312.20 427.79 309.67 424.36 C 303.37 416.37 301.80 405.03 305.54 395.60 C 307.43 390.57 311.18 386.59 313.68 381.89 C 303.93 387.27 300.05 399.50 300.97 410.04 M 100.61 428.66 C 97.25 430.94 94.35 433.90 92.08 437.27 C 98.60 435.42 103.14 430.04 109.15 427.15 C 124.82 416.09 140.97 405.76 156.57 394.58 C 158.44 393.70 158.08 391.53 158.21 389.85 C 138.99 402.75 120.16 416.25 100.61 428.66 M 236.14 392.14 C 235.15 394.57 234.21 397.02 233.68 399.60 C 235.53 398.31 237.20 396.79 238.74 395.14 C 237.87 394.13 237.01 393.13 236.14 392.14 M 348.14 418.97 C 348.92 421.15 351.70 424.59 354.13 422.85 C 352.81 420.94 350.77 417.88 348.14 418.97 M 128.66 446.31 C 131.70 449.11 135.05 458.69 138.94 452.21 C 136.74 449.28 134.31 446.52 131.82 443.84 C 130.76 444.66 129.70 445.48 128.66 446.31 Z" />
<path fill="#000000" opacity="1.00" d=" M 209.50 142.29 C 221.28 134.57 234.33 127.84 248.37 125.71 C 239.48 131.04 228.23 133.07 221.34 141.41 C 218.14 145.59 219.47 151.07 220.78 155.68 C 215.73 152.48 212.27 147.47 209.50 142.29 Z" />
<path fill="#000000" opacity="1.00" d=" M 228.10 169.15 C 225.41 165.51 220.18 160.72 226.19 157.51 C 228.60 160.20 230.65 163.18 232.61 166.22 C 231.13 167.23 229.62 168.20 228.10 169.15 Z" />
<path fill="#000000" opacity="1.00" d=" M 291.82 169.85 C 299.16 164.20 309.82 173.98 304.80 181.78 C 300.43 190.31 286.53 185.67 287.70 176.20 C 289.60 179.97 293.12 182.78 297.58 182.11 C 291.98 181.58 286.66 174.19 291.82 169.85 Z" />
<path fill="#000000" opacity="1.00" d=" M 170.31 187.33 C 173.15 185.93 176.98 187.82 177.37 191.02 C 178.27 194.80 173.86 198.31 170.40 196.54 C 166.48 195.11 166.44 188.85 170.31 187.33 Z" />
<path fill="#000000" opacity="1.00" d=" M 145.48 215.72 C 146.71 216.40 147.94 217.08 149.16 217.77 C 146.57 222.30 143.96 226.82 141.38 231.37 C 141.79 234.07 143.06 236.98 141.38 239.50 C 139.93 236.18 138.88 232.71 137.78 229.26 C 140.39 224.77 142.94 220.25 145.48 215.72 Z" />
<path fill="#000000" opacity="1.00" d=" M 230.26 330.30 C 236.40 328.50 242.67 334.83 240.96 340.97 C 239.77 347.61 230.35 350.13 225.94 345.07 C 221.24 340.51 223.77 331.54 230.26 330.30 M 230.16 342.24 C 233.63 343.39 236.46 340.83 236.24 337.29 C 234.29 339.03 232.34 340.78 230.16 342.24 Z" />
</g>
</svg>
