<?xml version="1.0" encoding="utf-8"?>
<!-- Generator: Adobe Illustrator 24.1.2, SVG Export Plug-In . SVG Version: 6.00 Build 0)  -->
<svg version="1.1" id="Слой_1" xmlns="http://www.w3.org/2000/svg" xmlns:xlink="http://www.w3.org/1999/xlink" x="0px" y="0px"
	 viewBox="0 0 32 32" style="enable-background:new 0 0 32 32;" xml:space="preserve">
<style type="text/css">
	.st0{fill:#95CC29;}
	.st1{display:none;fill:#666666;}
</style>
<g id="Layer_38">
	<path class="st0" d="M17.8,19.8c1.2-1.2,2.7-1.8,4.2-1.8c3.3,0,6,2.7,6,6c0,0.3,0,0.6-0.1,0.9l2,0.3C30,24.7,30,24.4,30,24
		c0-2.2-0.9-4.2-2.3-5.7C26.2,16.9,24.2,16,22,16c-2,0-4.1,0.8-5.7,2.3L17.8,19.8L17.8,19.8z"/>
	<path class="st0" d="M26.2,28.2C25.1,29.4,23.5,30,22,30c-3.3,0-6-2.7-6-6c0-0.3,0-0.6,0.1-0.9l-2-0.3C14,23.3,14,23.6,14,24
		c0,2.2,0.9,4.2,2.3,5.7c1.4,1.4,3.4,2.3,5.7,2.3c2,0,4.1-0.8,5.7-2.3L26.2,28.2L26.2,28.2z"/>
	<path class="st0" d="M26.3,23.7l2,2c0.2,0.2,0.4,0.3,0.7,0.3s0.5-0.1,0.7-0.3l2-2c0.4-0.4,0.4-1,0-1.4c-0.4-0.4-1-0.4-1.4,0
		L29,23.6l-1.3-1.3c-0.4-0.4-1-0.4-1.4,0C25.9,22.7,25.9,23.3,26.3,23.7L26.3,23.7z"/>
	<path class="st0" d="M13.7,25.7l1.3-1.3l1.3,1.3c0.4,0.4,1,0.4,1.4,0c0.4-0.4,0.4-1,0-1.4l-2-2c-0.4-0.4-1-0.4-1.4,0l-2,2
		c-0.4,0.4-0.4,1,0,1.4C12.7,26.1,13.3,26.1,13.7,25.7L13.7,25.7z"/>
	<path class="st0" d="M17.8,19.8L17.8,19.8L17.8,19.8z"/>
	<path d="M23,4h-5V3c0-1.7-1.3-3-3-3h-4C9.3,0,8,1.3,8,3v1H3C1.3,4,0,5.3,0,7c0,1.3,0,2.4,2,2.8V29c0,1.7,1.3,3,3,3h9v-2H5
		c-0.6,0-1-0.4-1-1V10h18v4h2V9.8c2-0.4,2-1.5,2-2.8C26,5.3,24.7,4,23,4z M10,3c0-0.6,0.4-1,1-1h4c0.6,0,1,0.4,1,1v1h-6V3z M23,8H3
		C2.4,8,2,7.6,2,7c0-0.6,0.4-1,1-1h5h10h5c0.6,0,1,0.4,1,1C24,7.6,23.6,8,23,8z"/>
	<rect x="12" y="14" width="2" height="6"/>
	<rect x="6" y="14" width="2" height="12"/>
	<rect x="0" class="st1" width="32" height="32"/>
</g>
<g id="Layer_1">
</g>
</svg>
